<svg xmlns="http://www.w3.org/2000/svg" viewBox="0 0 24 30" x="0px" y="0px"><defs><style>.cls-1{fill:none;stroke:#000;stroke-linecap:round;stroke-linejoin:round;}</style></defs><title>mailbox</title><path class="cls-1" d="M6.5,6.5h11a3,3,0,0,1,3,3v6a0,0,0,0,1,0,0H3.5a0,0,0,0,1,0,0v-6A3,3,0,0,1,6.5,6.5Z"/><polyline class="cls-1" points="17.5 2.5 12.5 2.5 12.5 9.5"/><line class="cls-1" x1="13.5" y1="20.5" x2="13.5" y2="15.5"/><line class="cls-1" x1="11.5" y1="20.5" x2="11.5" y2="15.5"/><line class="cls-1" x1="17.5" y1="4.5" x2="17.5" y2="2.5"/><line class="cls-1" x1="12.5" y1="4.5" x2="17.5" y2="4.5"/><path class="cls-1" d="M6.5,6.5h0a3,3,0,0,1,3,3v6a0,0,0,0,1,0,0h-6a0,0,0,0,1,0,0v-6A3,3,0,0,1,6.5,6.5Z"/><line class="cls-1" x1="5.5" y1="10.5" x2="7.5" y2="10.5"/></svg>
